<mxfile host="app.diagrams.net" agent="Mozilla/5.0 (Windows NT 10.0; Win64; x64) AppleWebKit/537.36 (KHTML, like Gecko) Chrome/131.0.0.0 Safari/537.36" version="25.0.3">
  <diagram name="Page-1" id="HdFt2w_HRNV3p2Dpe-nq">
    <mxGraphModel dx="1372" dy="786" grid="1" gridSize="10" guides="1" tooltips="1" connect="1" arrows="1" fold="1" page="1" pageScale="1" pageWidth="850" pageHeight="1100" background="#F7F7F7" math="0" shadow="0">
      <root>
        <mxCell id="0" />
        <mxCell id="1" parent="0" />
        <mxCell id="c-5d9vEyW5BsG5PWxmqG-3" value="" style="rounded=0;whiteSpace=wrap;html=1;" parent="1" vertex="1">
          <mxGeometry x="60" y="30" width="870" height="410" as="geometry" />
        </mxCell>
        <mxCell id="c-5d9vEyW5BsG5PWxmqG-13" style="rounded=0;orthogonalLoop=1;jettySize=auto;html=1;entryX=0;entryY=0.5;entryDx=0;entryDy=0;exitX=0.5;exitY=0.5;exitDx=0;exitDy=0;exitPerimeter=0;" parent="1" source="c-5d9vEyW5BsG5PWxmqG-1" target="c-5d9vEyW5BsG5PWxmqG-7" edge="1">
          <mxGeometry relative="1" as="geometry" />
        </mxCell>
        <mxCell id="c-5d9vEyW5BsG5PWxmqG-14" style="rounded=0;orthogonalLoop=1;jettySize=auto;html=1;exitX=0.5;exitY=0.5;exitDx=0;exitDy=0;exitPerimeter=0;" parent="1" source="c-5d9vEyW5BsG5PWxmqG-1" target="c-5d9vEyW5BsG5PWxmqG-9" edge="1">
          <mxGeometry relative="1" as="geometry" />
        </mxCell>
        <mxCell id="c-5d9vEyW5BsG5PWxmqG-1" value="Mahasiswa" style="shape=umlActor;verticalLabelPosition=bottom;verticalAlign=top;html=1;outlineConnect=0;" parent="1" vertex="1">
          <mxGeometry x="100" y="180" width="30" height="60" as="geometry" />
        </mxCell>
        <mxCell id="c-5d9vEyW5BsG5PWxmqG-7" value="Login" style="ellipse;whiteSpace=wrap;html=1;" parent="1" vertex="1">
          <mxGeometry x="180" y="210" width="140" height="70" as="geometry" />
        </mxCell>
        <mxCell id="c-5d9vEyW5BsG5PWxmqG-9" value="Register" style="ellipse;whiteSpace=wrap;html=1;" parent="1" vertex="1">
          <mxGeometry x="180" y="350" width="140" height="70" as="geometry" />
        </mxCell>
        <mxCell id="c-5d9vEyW5BsG5PWxmqG-16" style="rounded=0;orthogonalLoop=1;jettySize=auto;html=1;dashed=1;" parent="1" source="c-5d9vEyW5BsG5PWxmqG-10" target="c-5d9vEyW5BsG5PWxmqG-7" edge="1">
          <mxGeometry relative="1" as="geometry" />
        </mxCell>
        <mxCell id="c-5d9vEyW5BsG5PWxmqG-23" value="&amp;lt;include&amp;gt;" style="edgeLabel;html=1;align=center;verticalAlign=middle;resizable=0;points=[];" parent="c-5d9vEyW5BsG5PWxmqG-16" vertex="1" connectable="0">
          <mxGeometry x="-0.1168" relative="1" as="geometry">
            <mxPoint as="offset" />
          </mxGeometry>
        </mxCell>
        <mxCell id="c-5d9vEyW5BsG5PWxmqG-10" value="Lihat Mata kuliah" style="ellipse;whiteSpace=wrap;html=1;" parent="1" vertex="1">
          <mxGeometry x="180" y="90" width="140" height="70" as="geometry" />
        </mxCell>
        <mxCell id="c-5d9vEyW5BsG5PWxmqG-17" style="rounded=0;orthogonalLoop=1;jettySize=auto;html=1;dashed=1;" parent="1" source="c-5d9vEyW5BsG5PWxmqG-11" target="c-5d9vEyW5BsG5PWxmqG-7" edge="1">
          <mxGeometry relative="1" as="geometry" />
        </mxCell>
        <mxCell id="c-5d9vEyW5BsG5PWxmqG-22" value="&amp;lt;include&amp;gt;" style="edgeLabel;html=1;align=center;verticalAlign=middle;resizable=0;points=[];" parent="c-5d9vEyW5BsG5PWxmqG-17" vertex="1" connectable="0">
          <mxGeometry x="0.0571" relative="1" as="geometry">
            <mxPoint x="12" as="offset" />
          </mxGeometry>
        </mxCell>
        <mxCell id="c-5d9vEyW5BsG5PWxmqG-11" value="Tambah Mata kuliah" style="ellipse;whiteSpace=wrap;html=1;" parent="1" vertex="1">
          <mxGeometry x="440" y="210" width="140" height="70" as="geometry" />
        </mxCell>
        <mxCell id="c-5d9vEyW5BsG5PWxmqG-20" style="rounded=0;orthogonalLoop=1;jettySize=auto;html=1;entryX=1;entryY=1;entryDx=0;entryDy=0;dashed=1;" parent="1" source="c-5d9vEyW5BsG5PWxmqG-19" target="c-5d9vEyW5BsG5PWxmqG-7" edge="1">
          <mxGeometry relative="1" as="geometry" />
        </mxCell>
        <mxCell id="c-5d9vEyW5BsG5PWxmqG-21" value="&amp;lt;include&amp;gt;" style="edgeLabel;html=1;align=center;verticalAlign=middle;resizable=0;points=[];" parent="c-5d9vEyW5BsG5PWxmqG-20" vertex="1" connectable="0">
          <mxGeometry x="-0.1273" y="-1" relative="1" as="geometry">
            <mxPoint as="offset" />
          </mxGeometry>
        </mxCell>
        <mxCell id="c-5d9vEyW5BsG5PWxmqG-19" value="Logout" style="ellipse;whiteSpace=wrap;html=1;" parent="1" vertex="1">
          <mxGeometry x="390" y="350" width="140" height="70" as="geometry" />
        </mxCell>
        <mxCell id="c-5d9vEyW5BsG5PWxmqG-26" style="rounded=0;orthogonalLoop=1;jettySize=auto;html=1;dashed=1;" parent="1" source="c-5d9vEyW5BsG5PWxmqG-25" target="c-5d9vEyW5BsG5PWxmqG-10" edge="1">
          <mxGeometry relative="1" as="geometry" />
        </mxCell>
        <mxCell id="c-5d9vEyW5BsG5PWxmqG-27" value="&amp;lt;&amp;lt;extend&amp;gt;&amp;gt;" style="edgeLabel;html=1;align=center;verticalAlign=middle;resizable=0;points=[];" parent="c-5d9vEyW5BsG5PWxmqG-26" vertex="1" connectable="0">
          <mxGeometry x="0.0391" relative="1" as="geometry">
            <mxPoint as="offset" />
          </mxGeometry>
        </mxCell>
        <mxCell id="c-5d9vEyW5BsG5PWxmqG-25" value="Lihat Pertemuan" style="ellipse;whiteSpace=wrap;html=1;" parent="1" vertex="1">
          <mxGeometry x="480" y="90" width="140" height="70" as="geometry" />
        </mxCell>
        <mxCell id="c-5d9vEyW5BsG5PWxmqG-29" style="rounded=0;orthogonalLoop=1;jettySize=auto;html=1;dashed=1;" parent="1" source="c-5d9vEyW5BsG5PWxmqG-28" target="c-5d9vEyW5BsG5PWxmqG-25" edge="1">
          <mxGeometry relative="1" as="geometry" />
        </mxCell>
        <mxCell id="c-5d9vEyW5BsG5PWxmqG-30" value="&amp;lt;&amp;lt;extend&amp;gt;&amp;gt;" style="edgeLabel;html=1;align=center;verticalAlign=middle;resizable=0;points=[];" parent="c-5d9vEyW5BsG5PWxmqG-29" vertex="1" connectable="0">
          <mxGeometry x="-0.0989" relative="1" as="geometry">
            <mxPoint as="offset" />
          </mxGeometry>
        </mxCell>
        <mxCell id="c-5d9vEyW5BsG5PWxmqG-28" value="Lihat Detail Pertemuan" style="ellipse;whiteSpace=wrap;html=1;" parent="1" vertex="1">
          <mxGeometry x="730" y="175" width="140" height="70" as="geometry" />
        </mxCell>
        <mxCell id="IKkpV-HtlRRDrDz5dmDC-5" style="shape=connector;rounded=0;orthogonalLoop=1;jettySize=auto;html=1;entryX=1;entryY=0;entryDx=0;entryDy=0;strokeColor=default;align=center;verticalAlign=middle;fontFamily=Helvetica;fontSize=11;fontColor=default;labelBackgroundColor=default;endArrow=block;endFill=1;dashed=1;" edge="1" parent="1" source="IKkpV-HtlRRDrDz5dmDC-4" target="c-5d9vEyW5BsG5PWxmqG-25">
          <mxGeometry relative="1" as="geometry" />
        </mxCell>
        <mxCell id="IKkpV-HtlRRDrDz5dmDC-6" value="&amp;lt;&amp;lt;extend&amp;gt;&amp;gt;" style="edgeLabel;html=1;align=center;verticalAlign=middle;resizable=0;points=[];fontFamily=Helvetica;fontSize=11;fontColor=default;labelBackgroundColor=default;" vertex="1" connectable="0" parent="IKkpV-HtlRRDrDz5dmDC-5">
          <mxGeometry x="0.0797" relative="1" as="geometry">
            <mxPoint x="8" y="-4" as="offset" />
          </mxGeometry>
        </mxCell>
        <mxCell id="IKkpV-HtlRRDrDz5dmDC-4" value="Edit Mata Kuliah" style="ellipse;whiteSpace=wrap;html=1;" vertex="1" parent="1">
          <mxGeometry x="730" y="60" width="140" height="70" as="geometry" />
        </mxCell>
        <mxCell id="IKkpV-HtlRRDrDz5dmDC-15" style="shape=connector;rounded=0;orthogonalLoop=1;jettySize=auto;html=1;entryX=0.5;entryY=1;entryDx=0;entryDy=0;strokeColor=default;align=center;verticalAlign=middle;fontFamily=Helvetica;fontSize=11;fontColor=default;labelBackgroundColor=default;endArrow=block;endFill=1;dashed=1;" edge="1" parent="1" source="IKkpV-HtlRRDrDz5dmDC-7" target="c-5d9vEyW5BsG5PWxmqG-28">
          <mxGeometry relative="1" as="geometry" />
        </mxCell>
        <mxCell id="IKkpV-HtlRRDrDz5dmDC-17" value="&amp;lt;&amp;lt;extend&amp;gt;&amp;gt;" style="edgeLabel;html=1;align=center;verticalAlign=middle;resizable=0;points=[];fontFamily=Helvetica;fontSize=11;fontColor=default;labelBackgroundColor=default;" vertex="1" connectable="0" parent="IKkpV-HtlRRDrDz5dmDC-15">
          <mxGeometry x="0.0155" relative="1" as="geometry">
            <mxPoint as="offset" />
          </mxGeometry>
        </mxCell>
        <mxCell id="IKkpV-HtlRRDrDz5dmDC-7" value="Edit Pertemuan" style="ellipse;whiteSpace=wrap;html=1;" vertex="1" parent="1">
          <mxGeometry x="780" y="310" width="140" height="70" as="geometry" />
        </mxCell>
        <mxCell id="IKkpV-HtlRRDrDz5dmDC-14" style="shape=connector;rounded=0;orthogonalLoop=1;jettySize=auto;html=1;entryX=0;entryY=1;entryDx=0;entryDy=0;strokeColor=default;align=center;verticalAlign=middle;fontFamily=Helvetica;fontSize=11;fontColor=default;labelBackgroundColor=default;endArrow=block;endFill=1;dashed=1;" edge="1" parent="1" source="IKkpV-HtlRRDrDz5dmDC-10" target="c-5d9vEyW5BsG5PWxmqG-28">
          <mxGeometry relative="1" as="geometry" />
        </mxCell>
        <mxCell id="IKkpV-HtlRRDrDz5dmDC-16" value="&amp;lt;&amp;lt;extend&amp;gt;&amp;gt;" style="edgeLabel;html=1;align=center;verticalAlign=middle;resizable=0;points=[];fontFamily=Helvetica;fontSize=11;fontColor=default;labelBackgroundColor=default;" vertex="1" connectable="0" parent="IKkpV-HtlRRDrDz5dmDC-14">
          <mxGeometry x="-0.0263" relative="1" as="geometry">
            <mxPoint as="offset" />
          </mxGeometry>
        </mxCell>
        <mxCell id="IKkpV-HtlRRDrDz5dmDC-10" value="Tambah Catatan" style="ellipse;whiteSpace=wrap;html=1;" vertex="1" parent="1">
          <mxGeometry x="600" y="310" width="140" height="70" as="geometry" />
        </mxCell>
      </root>
    </mxGraphModel>
  </diagram>
</mxfile>
